# xmcd
# 
# Track frame offsets:
#     150
#     15738
#     40370
#     66671
#     89675
#     107379
#     126857
#     148466
#     164645
#     183366
#     201844
#     212407
# 
# Disc length: 3082
# 
# Revision: 5
# Processed by: cddbd v1.5.2PL0 Copyright (c) Steve Scherf et al.
# Submitted via: fre:ac v1.0.31
# 
DISCID=b90c080c
DTITLE=New Age - The Ultimate Most Relaxing New Age Music In The World Disc 2
DYEAR=2006
DGENRE=New Age
TTITLE0=Andreas Vollenweider - Stella
TTITLE1=Aftertouch - Fillipa
TTITLE2=Makoto Hirahara - Heart
TTITLE3=Suzanne Ciani - Full Moon Sonata
TTITLE4=Toshiyuke Watanabe - Falling Snow
TTITLE5=David Arkenstone - Lothlorien
TTITLE6=Steven Halpern - Inner Peace
TTITLE7=Kitaro - Ritual Dance
TTITLE8=John Kaizan Neptune - Sky And Sand Way
TTITLE9=Manabu Ohishi - Awakened Breezes
TTITLE10=Shin-ichi Fukuda and Duardo Fernandez - Atom Hearts Club Duo, il. Andante
TTITLE11=Hideo Shimazu - Silver Spring Rain
EXTD=YEAR: 2006
EXTT0=
EXTT1=
EXTT2=
EXTT3=
EXTT4=
EXTT5=
EXTT6=
EXTT7=
EXTT8=
EXTT9=
EXTT10=
EXTT11=
PLAYORDER=
